<?xml version="1.0" encoding="UTF-8" standalone="no"?>
<svg
   width="60"
   height="60"
   viewBox="0 0 60 60"
   version="1.1"
   id="svg2"
   sodipodi:docname="csuf_logo.svg"
   inkscape:version="1.4.2 (ebf0e940d0, 2025-05-08)"
   xmlns:inkscape="http://www.inkscape.org/namespaces/inkscape"
   xmlns:sodipodi="http://sodipodi.sourceforge.net/DTD/sodipodi-0.dtd"
   xmlns="http://www.w3.org/2000/svg"
   xmlns:svg="http://www.w3.org/2000/svg"
   xmlns:rdf="http://www.w3.org/1999/02/22-rdf-syntax-ns#"
   xmlns:cc="http://creativecommons.org/ns#"
   xmlns:dc="http://purl.org/dc/elements/1.1/">
  <defs
     id="defs2" />
  <sodipodi:namedview
     id="namedview2"
     pagecolor="#ffffff"
     bordercolor="#000000"
     borderopacity="0.25"
     inkscape:showpageshadow="2"
     inkscape:pageopacity="0.0"
     inkscape:pagecheckerboard="0"
     inkscape:deskcolor="#d1d1d1"
     inkscape:zoom="4.985"
     inkscape:cx="100.1003"
     inkscape:cy="100.1003"
     inkscape:window-width="2540"
     inkscape:window-height="1392"
     inkscape:window-x="0"
     inkscape:window-y="0"
     inkscape:window-maximized="1"
     inkscape:current-layer="svg2" />
  <!-- Generator: Sketch 54.1 (76490) - https://sketchapp.com -->
  <title
     id="title1">cal-st-fullerton</title>
  <desc
     id="desc1">Created with Sketch.</desc>
  <g
     id="g2"
     stroke="none"
     stroke-width="1"
     fill="none"
     fill-rule="evenodd"
     transform="matrix(0.30161139,0,0,0.30161139,0.11491233,-0.19042562)">
    <g
       id="cal-st-fullerton_BGL">
      <g
         id="cal-st-fullerton"
         transform="translate(34)">
        <g
           fill-rule="nonzero"
           id="g10">
          <g
             transform="matrix(1,0,0,-1,0,199.56284)"
             id="g1">
            <g
               id="g12">
              <polyline
                 id="path14"
                 fill="#193051"
                 points="1.72868771 198.931479 130.16949 198.931479 130.16949 138.128622 101.530036 157.751993 70.1169085 157.751993 70.1169085 116.579232 102.918972 129.435054 102.918972 63.5895739 69.9260348 78.8733902 69.9260348 27.6140388 94.7499463 0 0 0 22.6744199 27.6140388 22.6744199 81.3038231 6.41583401 96.7667063 22.9122353 112.749051 22.9122353 165.052539 1.72868771 198.931479" />
              <polyline
                 id="path16"
                 fill="#f47216"
                 points="22.0871873 187.482131 34.6338799 167.89491 34.6338799 107.857921 22.9830257 96.5800732 34.538737 85.7973917 34.538737 23.4972672 22.9830257 10.345439 71.5831847 10.345439 59.9809517 23.5803273 59.9809517 90.2480011 71.7817001 90.2480011 93.2199336 79.9571228 93.2199336 113.384613 71.7817001 105.114751 59.9258645 105.114751 59.9258645 168.307688 106.170459 168.307688 120.383119 157.998315 120.383119 187.470361 22.0871873 187.482131" />
            </g>
          </g>
        </g>
      </g>
    </g>
  </g>
  <metadata
     id="metadata2">
    <rdf:RDF>
      <cc:Work
         rdf:about="">
        <dc:title>cal-st-fullerton</dc:title>
      </cc:Work>
    </rdf:RDF>
  </metadata>
</svg>
